<!DOCTYPE svg>
<svg version="1.1"
width="1088" height="1077"
xmlns="http://www.w3.org/2000/svg">

<line x1="444" y1="383" x2="892" y2="635" stroke-width="1" stroke="skyblue"/>
<line x1="444" y1="383" x2="785" y2="962" stroke-width="1" stroke="skyblue"/>
<line x1="444" y1="383" x2="323" y2="585" stroke-width="1" stroke="skyblue"/>
<line x1="444" y1="383" x2="490" y2="212" stroke-width="1" stroke="skyblue"/>
<line x1="892" y1="635" x2="339" y2="804" stroke-width="1" stroke="skyblue"/>
<line x1="892" y1="635" x2="672" y2="991" stroke-width="1" stroke="skyblue"/>
<line x1="892" y1="635" x2="787" y2="101" stroke-width="1" stroke="skyblue"/>
<line x1="892" y1="635" x2="414" y2="579" stroke-width="1" stroke="skyblue"/>
<line x1="892" y1="635" x2="411" y2="784" stroke-width="1" stroke="skyblue"/>
<line x1="892" y1="635" x2="268" y2="890" stroke-width="1" stroke="skyblue"/>
<line x1="892" y1="635" x2="502" y2="267" stroke-width="1" stroke="skyblue"/>
<line x1="892" y1="635" x2="598" y2="68" stroke-width="1" stroke="skyblue"/>
<line x1="892" y1="635" x2="728" y2="196" stroke-width="1" stroke="skyblue"/>
<line x1="892" y1="635" x2="765" y2="381" stroke-width="1" stroke="skyblue"/>
<line x1="892" y1="635" x2="171" y2="551" stroke-width="1" stroke="skyblue"/>
<line x1="892" y1="635" x2="578" y2="950" stroke-width="1" stroke="skyblue"/>
<line x1="892" y1="635" x2="544" y2="932" stroke-width="1" stroke="skyblue"/>
<line x1="892" y1="635" x2="955" y2="170" stroke-width="1" stroke="skyblue"/>
<line x1="892" y1="635" x2="865" y2="379" stroke-width="1" stroke="skyblue"/>
<line x1="892" y1="635" x2="143" y2="364" stroke-width="1" stroke="skyblue"/>
<line x1="892" y1="635" x2="598" y2="203" stroke-width="1" stroke="skyblue"/>
<line x1="892" y1="635" x2="286" y2="138" stroke-width="1" stroke="skyblue"/>
<line x1="785" y1="962" x2="608" y2="979" stroke-width="1" stroke="skyblue"/>
<line x1="785" y1="962" x2="689" y2="723" stroke-width="1" stroke="skyblue"/>
<line x1="323" y1="585" x2="353" y2="213" stroke-width="1" stroke="skyblue"/>
<line x1="323" y1="585" x2="225" y2="441" stroke-width="1" stroke="skyblue"/>
<line x1="323" y1="585" x2="674" y2="465" stroke-width="1" stroke="skyblue"/>
<line x1="323" y1="585" x2="759" y2="991" stroke-width="1" stroke="skyblue"/>
<line x1="323" y1="585" x2="1019" y2="457" stroke-width="1" stroke="skyblue"/>
<line x1="323" y1="585" x2="722" y2="948" stroke-width="1" stroke="skyblue"/>
<line x1="323" y1="585" x2="435" y2="261" stroke-width="1" stroke="skyblue"/>
<line x1="490" y1="212" x2="817" y2="868" stroke-width="1" stroke="skyblue"/>
<line x1="490" y1="212" x2="993" y2="411" stroke-width="1" stroke="skyblue"/>
<line x1="490" y1="212" x2="675" y2="581" stroke-width="1" stroke="skyblue"/>
<line x1="490" y1="212" x2="861" y2="680" stroke-width="1" stroke="skyblue"/>
<line x1="490" y1="212" x2="161" y2="577" stroke-width="1" stroke="skyblue"/>
<line x1="490" y1="212" x2="55" y2="1009" stroke-width="1" stroke="skyblue"/>
<line x1="490" y1="212" x2="309" y2="604" stroke-width="1" stroke="skyblue"/>
<line x1="490" y1="212" x2="686" y2="345" stroke-width="1" stroke="skyblue"/>
<line x1="490" y1="212" x2="660" y2="277" stroke-width="1" stroke="skyblue"/>
<line x1="490" y1="212" x2="568" y2="241" stroke-width="1" stroke="skyblue"/>
<line x1="490" y1="212" x2="444" y2="1015" stroke-width="1" stroke="skyblue"/>
<line x1="490" y1="212" x2="922" y2="875" stroke-width="1" stroke="skyblue"/>
<line x1="490" y1="212" x2="666" y2="837" stroke-width="1" stroke="skyblue"/>
<line x1="490" y1="212" x2="383" y2="50" stroke-width="1" stroke="skyblue"/>
<line x1="490" y1="212" x2="551" y2="944" stroke-width="1" stroke="skyblue"/>
<line x1="490" y1="212" x2="487" y2="188" stroke-width="1" stroke="skyblue"/>
<line x1="490" y1="212" x2="236" y2="168" stroke-width="1" stroke="skyblue"/>
<line x1="339" y1="804" x2="164" y2="138" stroke-width="1" stroke="skyblue"/>
<line x1="339" y1="804" x2="644" y2="52" stroke-width="1" stroke="skyblue"/>
<line x1="339" y1="804" x2="154" y2="448" stroke-width="1" stroke="skyblue"/>
<line x1="339" y1="804" x2="981" y2="316" stroke-width="1" stroke="skyblue"/>
<line x1="339" y1="804" x2="803" y2="611" stroke-width="1" stroke="skyblue"/>
<line x1="339" y1="804" x2="275" y2="438" stroke-width="1" stroke="skyblue"/>
<line x1="339" y1="804" x2="476" y2="713" stroke-width="1" stroke="skyblue"/>
<line x1="339" y1="804" x2="111" y2="580" stroke-width="1" stroke="skyblue"/>
<line x1="339" y1="804" x2="501" y2="342" stroke-width="1" stroke="skyblue"/>
<line x1="339" y1="804" x2="277" y2="980" stroke-width="1" stroke="skyblue"/>
<line x1="339" y1="804" x2="1028" y2="453" stroke-width="1" stroke="skyblue"/>
<line x1="339" y1="804" x2="296" y2="429" stroke-width="1" stroke="skyblue"/>
<line x1="339" y1="804" x2="343" y2="951" stroke-width="1" stroke="skyblue"/>
<line x1="339" y1="804" x2="773" y2="711" stroke-width="1" stroke="skyblue"/>
<line x1="339" y1="804" x2="173" y2="240" stroke-width="1" stroke="skyblue"/>
<line x1="339" y1="804" x2="50" y2="197" stroke-width="1" stroke="skyblue"/>
<line x1="339" y1="804" x2="186" y2="402" stroke-width="1" stroke="skyblue"/>
<line x1="339" y1="804" x2="852" y2="899" stroke-width="1" stroke="skyblue"/>
<line x1="339" y1="804" x2="243" y2="401" stroke-width="1" stroke="skyblue"/>
<line x1="672" y1="991" x2="277" y2="135" stroke-width="1" stroke="skyblue"/>
<line x1="672" y1="991" x2="90" y2="55" stroke-width="1" stroke="skyblue"/>
<line x1="672" y1="991" x2="745" y2="756" stroke-width="1" stroke="skyblue"/>
<line x1="672" y1="991" x2="533" y2="789" stroke-width="1" stroke="skyblue"/>
<line x1="672" y1="991" x2="718" y2="534" stroke-width="1" stroke="skyblue"/>
<line x1="672" y1="991" x2="1018" y2="716" stroke-width="1" stroke="skyblue"/>
<line x1="672" y1="991" x2="628" y2="865" stroke-width="1" stroke="skyblue"/>
<line x1="672" y1="991" x2="1029" y2="193" stroke-width="1" stroke="skyblue"/>
<line x1="672" y1="991" x2="592" y2="922" stroke-width="1" stroke="skyblue"/>
<line x1="672" y1="991" x2="190" y2="443" stroke-width="1" stroke="skyblue"/>
<line x1="672" y1="991" x2="561" y2="311" stroke-width="1" stroke="skyblue"/>
<line x1="672" y1="991" x2="145" y2="871" stroke-width="1" stroke="skyblue"/>
<line x1="672" y1="991" x2="147" y2="322" stroke-width="1" stroke="skyblue"/>
<line x1="672" y1="991" x2="685" y2="57" stroke-width="1" stroke="skyblue"/>
<line x1="672" y1="991" x2="1022" y2="142" stroke-width="1" stroke="skyblue"/>
<line x1="672" y1="991" x2="639" y2="875" stroke-width="1" stroke="skyblue"/>
<line x1="672" y1="991" x2="679" y2="545" stroke-width="1" stroke="skyblue"/>
<line x1="672" y1="991" x2="130" y2="897" stroke-width="1" stroke="skyblue"/>
<line x1="672" y1="991" x2="192" y2="1014" stroke-width="1" stroke="skyblue"/>
<line x1="672" y1="991" x2="864" y2="814" stroke-width="1" stroke="skyblue"/>
<line x1="672" y1="991" x2="916" y2="859" stroke-width="1" stroke="skyblue"/>
<line x1="672" y1="991" x2="759" y2="201" stroke-width="1" stroke="skyblue"/>
<line x1="672" y1="991" x2="795" y2="219" stroke-width="1" stroke="skyblue"/>
<line x1="672" y1="991" x2="891" y2="656" stroke-width="1" stroke="skyblue"/>
<line x1="672" y1="991" x2="375" y2="773" stroke-width="1" stroke="skyblue"/>
<line x1="672" y1="991" x2="541" y2="86" stroke-width="1" stroke="skyblue"/>
<line x1="672" y1="991" x2="1038" y2="547" stroke-width="1" stroke="skyblue"/>
<line x1="672" y1="991" x2="974" y2="753" stroke-width="1" stroke="skyblue"/>
<line x1="672" y1="991" x2="346" y2="1027" stroke-width="1" stroke="skyblue"/>
<line x1="672" y1="991" x2="121" y2="703" stroke-width="1" stroke="skyblue"/>
<line x1="672" y1="991" x2="857" y2="293" stroke-width="1" stroke="skyblue"/>
<line x1="672" y1="991" x2="553" y2="926" stroke-width="1" stroke="skyblue"/>
<circle cx="857" cy="293" r="3" fill="rgb(0, 0, 0)"/>
<circle cx="121" cy="703" r="3" fill="rgb(0, 0, 0)"/>
<circle cx="981" cy="316" r="3" fill="rgb(0, 0, 0)"/>
<circle cx="592" cy="922" r="3" fill="rgb(0, 0, 0)"/>
<circle cx="974" cy="753" r="3" fill="rgb(0, 0, 0)"/>
<circle cx="490" cy="212" r="8" fill="rgb(0, 105, 0)"/>
<text x="490" y="212" text-anchor="middle" stroke="white" stroke-width="1px" font-size="8" dy=".3em">143590</text>
<circle cx="541" cy="86" r="3" fill="rgb(0, 0, 0)"/>
<circle cx="1038" cy="547" r="3" fill="rgb(0, 0, 0)"/>
<circle cx="375" cy="773" r="3" fill="rgb(0, 0, 0)"/>
<circle cx="891" cy="656" r="3" fill="rgb(0, 0, 0)"/>
<circle cx="353" cy="213" r="3" fill="rgb(0, 0, 0)"/>
<circle cx="759" cy="201" r="3" fill="rgb(0, 0, 0)"/>
<circle cx="608" cy="979" r="3" fill="rgb(0, 0, 0)"/>
<circle cx="147" cy="322" r="3" fill="rgb(0, 0, 0)"/>
<circle cx="865" cy="379" r="3" fill="rgb(0, 0, 0)"/>
<circle cx="145" cy="871" r="3" fill="rgb(0, 0, 0)"/>
<circle cx="561" cy="311" r="3" fill="rgb(0, 0, 0)"/>
<circle cx="861" cy="680" r="3" fill="rgb(0, 0, 0)"/>
<circle cx="1029" cy="193" r="3" fill="rgb(0, 0, 0)"/>
<circle cx="628" cy="865" r="3" fill="rgb(0, 0, 0)"/>
<circle cx="1018" cy="716" r="3" fill="rgb(0, 0, 0)"/>
<circle cx="444" cy="383" r="12" fill="rgb(0, 155, 0)"/>
<text x="444" y="383" text-anchor="middle" stroke="white" stroke-width="1px" font-size="12" dy=".3em">49956</text>
<circle cx="533" cy="789" r="3" fill="rgb(0, 0, 0)"/>
<circle cx="277" cy="135" r="3" fill="rgb(0, 0, 0)"/>
<circle cx="243" cy="401" r="3" fill="rgb(0, 0, 0)"/>
<circle cx="50" cy="197" r="3" fill="rgb(0, 0, 0)"/>
<circle cx="759" cy="991" r="3" fill="rgb(0, 0, 0)"/>
<circle cx="718" cy="534" r="3" fill="rgb(0, 0, 0)"/>
<circle cx="173" cy="240" r="3" fill="rgb(0, 0, 0)"/>
<circle cx="578" cy="950" r="3" fill="rgb(0, 0, 0)"/>
<circle cx="773" cy="711" r="3" fill="rgb(0, 0, 0)"/>
<circle cx="598" cy="68" r="3" fill="rgb(0, 0, 0)"/>
<circle cx="852" cy="899" r="3" fill="rgb(0, 0, 0)"/>
<circle cx="1028" cy="453" r="3" fill="rgb(0, 0, 0)"/>
<circle cx="277" cy="980" r="3" fill="rgb(0, 0, 0)"/>
<circle cx="346" cy="1027" r="3" fill="rgb(0, 0, 0)"/>
<circle cx="685" cy="57" r="3" fill="rgb(0, 0, 0)"/>
<circle cx="916" cy="859" r="3" fill="rgb(0, 0, 0)"/>
<circle cx="111" cy="580" r="3" fill="rgb(0, 0, 0)"/>
<circle cx="476" cy="713" r="3" fill="rgb(0, 0, 0)"/>
<circle cx="164" cy="138" r="3" fill="rgb(0, 0, 0)"/>
<circle cx="679" cy="545" r="3" fill="rgb(0, 0, 0)"/>
<circle cx="568" cy="241" r="3" fill="rgb(0, 0, 0)"/>
<circle cx="154" cy="448" r="3" fill="rgb(0, 0, 0)"/>
<circle cx="501" cy="342" r="3" fill="rgb(0, 0, 0)"/>
<circle cx="236" cy="168" r="3" fill="rgb(0, 0, 0)"/>
<circle cx="553" cy="926" r="3" fill="rgb(0, 0, 0)"/>
<circle cx="803" cy="611" r="3" fill="rgb(0, 0, 0)"/>
<circle cx="765" cy="381" r="3" fill="rgb(0, 0, 0)"/>
<circle cx="487" cy="188" r="3" fill="rgb(0, 0, 0)"/>
<circle cx="551" cy="944" r="3" fill="rgb(0, 0, 0)"/>
<circle cx="922" cy="875" r="3" fill="rgb(0, 0, 0)"/>
<circle cx="186" cy="402" r="3" fill="rgb(0, 0, 0)"/>
<circle cx="225" cy="441" r="3" fill="rgb(0, 0, 0)"/>
<circle cx="343" cy="951" r="3" fill="rgb(0, 0, 0)"/>
<circle cx="660" cy="277" r="3" fill="rgb(0, 0, 0)"/>
<circle cx="795" cy="219" r="3" fill="rgb(0, 0, 0)"/>
<circle cx="686" cy="345" r="3" fill="rgb(0, 0, 0)"/>
<circle cx="190" cy="443" r="3" fill="rgb(0, 0, 0)"/>
<circle cx="1019" cy="457" r="3" fill="rgb(0, 0, 0)"/>
<circle cx="309" cy="604" r="3" fill="rgb(0, 0, 0)"/>
<circle cx="644" cy="52" r="3" fill="rgb(0, 0, 0)"/>
<circle cx="444" cy="1015" r="3" fill="rgb(0, 0, 0)"/>
<circle cx="161" cy="577" r="3" fill="rgb(0, 0, 0)"/>
<circle cx="55" cy="1009" r="3" fill="rgb(0, 0, 0)"/>
<circle cx="993" cy="411" r="3" fill="rgb(0, 0, 0)"/>
<circle cx="130" cy="897" r="3" fill="rgb(0, 0, 0)"/>
<circle cx="817" cy="868" r="3" fill="rgb(0, 0, 0)"/>
<circle cx="745" cy="756" r="3" fill="rgb(0, 0, 0)"/>
<circle cx="722" cy="948" r="3" fill="rgb(0, 0, 0)"/>
<circle cx="639" cy="875" r="3" fill="rgb(0, 0, 0)"/>
<circle cx="787" cy="101" r="3" fill="rgb(0, 0, 0)"/>
<circle cx="666" cy="837" r="3" fill="rgb(0, 0, 0)"/>
<circle cx="689" cy="723" r="3" fill="rgb(0, 0, 0)"/>
<circle cx="383" cy="50" r="3" fill="rgb(0, 0, 0)"/>
<circle cx="1022" cy="142" r="3" fill="rgb(0, 0, 0)"/>
<circle cx="143" cy="364" r="3" fill="rgb(0, 0, 0)"/>
<circle cx="502" cy="267" r="3" fill="rgb(0, 0, 0)"/>
<circle cx="339" cy="804" r="9" fill="rgb(0, 116, 0)"/>
<text x="339" y="804" text-anchor="middle" stroke="white" stroke-width="1px" font-size="9" dy=".3em">482506</text>
<circle cx="955" cy="170" r="3" fill="rgb(0, 0, 0)"/>
<circle cx="171" cy="551" r="3" fill="rgb(0, 0, 0)"/>
<circle cx="864" cy="814" r="3" fill="rgb(0, 0, 0)"/>
<circle cx="286" cy="138" r="3" fill="rgb(0, 0, 0)"/>
<circle cx="268" cy="890" r="3" fill="rgb(0, 0, 0)"/>
<circle cx="414" cy="579" r="3" fill="rgb(0, 0, 0)"/>
<circle cx="275" cy="438" r="3" fill="rgb(0, 0, 0)"/>
<circle cx="411" cy="784" r="3" fill="rgb(0, 0, 0)"/>
<circle cx="892" cy="635" r="20" fill="rgb(0, 254, 0)"/>
<text x="892" y="635" text-anchor="middle" stroke="white" stroke-width="1px" font-size="20" dy=".3em">378352</text>
<circle cx="598" cy="203" r="3" fill="rgb(0, 0, 0)"/>
<circle cx="672" cy="991" r="14" fill="rgb(0, 182, 0)"/>
<text x="672" y="991" text-anchor="middle" stroke="white" stroke-width="1px" font-size="14" dy=".3em">469664</text>
<circle cx="435" cy="261" r="3" fill="rgb(0, 0, 0)"/>
<circle cx="323" cy="585" r="3" fill="rgb(0, 45, 0)"/>
<circle cx="296" cy="429" r="3" fill="rgb(0, 0, 0)"/>
<circle cx="544" cy="932" r="3" fill="rgb(0, 0, 0)"/>
<circle cx="674" cy="465" r="3" fill="rgb(0, 0, 0)"/>
<circle cx="192" cy="1014" r="3" fill="rgb(0, 0, 0)"/>
<circle cx="785" cy="962" r="3" fill="rgb(0, 13, 0)"/>
<circle cx="675" cy="581" r="3" fill="rgb(0, 0, 0)"/>
<circle cx="90" cy="55" r="3" fill="rgb(0, 0, 0)"/>
<circle cx="728" cy="196" r="3" fill="rgb(0, 0, 0)"/>

</svg>