<!DOCTYPE svg>
<svg version="1.1"
width="500" height="500"
xmlns="http://www.w3.org/2000/svg">

<line x1="234" y1="194" x2="187" y2="165" stroke-width="1" stroke="black"/>
<line x1="234" y1="194" x2="238" y2="194" stroke-width="1" stroke="black"/>
<line x1="234" y1="194" x2="242" y2="185" stroke-width="1" stroke="black"/>
<line x1="234" y1="194" x2="210" y2="164" stroke-width="1" stroke="black"/>
<line x1="234" y1="194" x2="167" y2="165" stroke-width="1" stroke="black"/>
<line x1="234" y1="194" x2="241" y2="211" stroke-width="1" stroke="black"/>
<line x1="234" y1="194" x2="241" y2="210" stroke-width="1" stroke="black"/>
<line x1="187" y1="165" x2="166" y2="162" stroke-width="1" stroke="black"/>
<line x1="187" y1="165" x2="177" y2="180" stroke-width="1" stroke="black"/>
<line x1="238" y1="194" x2="83" y2="105" stroke-width="1" stroke="black"/>
<line x1="238" y1="194" x2="239" y2="190" stroke-width="1" stroke="black"/>
<line x1="165" y1="183" x2="166" y2="162" stroke-width="1" stroke="black"/>
<line x1="165" y1="183" x2="177" y2="180" stroke-width="1" stroke="black"/>
<line x1="165" y1="183" x2="128" y2="206" stroke-width="1" stroke="black"/>
<line x1="166" y1="162" x2="83" y2="105" stroke-width="1" stroke="black"/>
<line x1="166" y1="162" x2="129" y2="209" stroke-width="1" stroke="black"/>
<line x1="242" y1="185" x2="239" y2="190" stroke-width="1" stroke="black"/>
<line x1="242" y1="185" x2="210" y2="164" stroke-width="1" stroke="black"/>
<line x1="239" y1="190" x2="106" y2="123" stroke-width="1" stroke="black"/>
<line x1="239" y1="190" x2="234" y2="237" stroke-width="1" stroke="black"/>
<line x1="210" y1="164" x2="167" y2="165" stroke-width="1" stroke="black"/>
<line x1="210" y1="164" x2="106" y2="123" stroke-width="1" stroke="black"/>
<line x1="167" y1="165" x2="241" y2="211" stroke-width="1" stroke="black"/>
<line x1="241" y1="211" x2="241" y2="210" stroke-width="1" stroke="black"/>
<line x1="241" y1="210" x2="177" y2="180" stroke-width="1" stroke="black"/>
<line x1="177" y1="180" x2="128" y2="206" stroke-width="1" stroke="black"/>
<line x1="234" y1="237" x2="225" y2="244" stroke-width="1" stroke="black"/>
<line x1="225" y1="244" x2="129" y2="209" stroke-width="1" stroke="black"/>
<line x1="129" y1="209" x2="128" y2="206" stroke-width="1" stroke="black"/>
<circle cx="234" cy="194" r="10"/>
<text x="234" y="194" text-anchor="middle" stroke="white" stroke-width="1px" font-size="smaller" dy=".3em">1</text>
<circle cx="187" cy="165" r="10"/>
<text x="187" y="165" text-anchor="middle" stroke="white" stroke-width="1px" font-size="smaller" dy=".3em">2</text>
<circle cx="234" cy="194" r="10"/>
<text x="234" y="194" text-anchor="middle" stroke="white" stroke-width="1px" font-size="smaller" dy=".3em">1</text>
<circle cx="238" cy="194" r="10"/>
<text x="238" y="194" text-anchor="middle" stroke="white" stroke-width="1px" font-size="smaller" dy=".3em">3</text>
<circle cx="234" cy="194" r="10"/>
<text x="234" y="194" text-anchor="middle" stroke="white" stroke-width="1px" font-size="smaller" dy=".3em">1</text>
<circle cx="242" cy="185" r="10"/>
<text x="242" y="185" text-anchor="middle" stroke="white" stroke-width="1px" font-size="smaller" dy=".3em">7</text>
<circle cx="234" cy="194" r="10"/>
<text x="234" y="194" text-anchor="middle" stroke="white" stroke-width="1px" font-size="smaller" dy=".3em">1</text>
<circle cx="210" cy="164" r="10"/>
<text x="210" y="164" text-anchor="middle" stroke="white" stroke-width="1px" font-size="smaller" dy=".3em">9</text>
<circle cx="234" cy="194" r="10"/>
<text x="234" y="194" text-anchor="middle" stroke="white" stroke-width="1px" font-size="smaller" dy=".3em">1</text>
<circle cx="167" cy="165" r="10"/>
<text x="167" y="165" text-anchor="middle" stroke="white" stroke-width="1px" font-size="smaller" dy=".3em">10</text>
<circle cx="234" cy="194" r="10"/>
<text x="234" y="194" text-anchor="middle" stroke="white" stroke-width="1px" font-size="smaller" dy=".3em">1</text>
<circle cx="241" cy="211" r="10"/>
<text x="241" y="211" text-anchor="middle" stroke="white" stroke-width="1px" font-size="smaller" dy=".3em">11</text>
<circle cx="234" cy="194" r="10"/>
<text x="234" y="194" text-anchor="middle" stroke="white" stroke-width="1px" font-size="smaller" dy=".3em">1</text>
<circle cx="241" cy="210" r="10"/>
<text x="241" y="210" text-anchor="middle" stroke="white" stroke-width="1px" font-size="smaller" dy=".3em">12</text>
<circle cx="187" cy="165" r="10"/>
<text x="187" y="165" text-anchor="middle" stroke="white" stroke-width="1px" font-size="smaller" dy=".3em">2</text>
<circle cx="166" cy="162" r="10"/>
<text x="166" y="162" text-anchor="middle" stroke="white" stroke-width="1px" font-size="smaller" dy=".3em">5</text>
<circle cx="187" cy="165" r="10"/>
<text x="187" y="165" text-anchor="middle" stroke="white" stroke-width="1px" font-size="smaller" dy=".3em">2</text>
<circle cx="177" cy="180" r="10"/>
<text x="177" y="180" text-anchor="middle" stroke="white" stroke-width="1px" font-size="smaller" dy=".3em">13</text>
<circle cx="238" cy="194" r="10"/>
<text x="238" y="194" text-anchor="middle" stroke="white" stroke-width="1px" font-size="smaller" dy=".3em">3</text>
<circle cx="83" cy="105" r="10"/>
<text x="83" y="105" text-anchor="middle" stroke="white" stroke-width="1px" font-size="smaller" dy=".3em">6</text>
<circle cx="238" cy="194" r="10"/>
<text x="238" y="194" text-anchor="middle" stroke="white" stroke-width="1px" font-size="smaller" dy=".3em">3</text>
<circle cx="239" cy="190" r="10"/>
<text x="239" y="190" text-anchor="middle" stroke="white" stroke-width="1px" font-size="smaller" dy=".3em">8</text>
<circle cx="165" cy="183" r="10"/>
<text x="165" y="183" text-anchor="middle" stroke="white" stroke-width="1px" font-size="smaller" dy=".3em">4</text>
<circle cx="166" cy="162" r="10"/>
<text x="166" y="162" text-anchor="middle" stroke="white" stroke-width="1px" font-size="smaller" dy=".3em">5</text>
<circle cx="165" cy="183" r="10"/>
<text x="165" y="183" text-anchor="middle" stroke="white" stroke-width="1px" font-size="smaller" dy=".3em">4</text>
<circle cx="177" cy="180" r="10"/>
<text x="177" y="180" text-anchor="middle" stroke="white" stroke-width="1px" font-size="smaller" dy=".3em">13</text>
<circle cx="165" cy="183" r="10"/>
<text x="165" y="183" text-anchor="middle" stroke="white" stroke-width="1px" font-size="smaller" dy=".3em">4</text>
<circle cx="128" cy="206" r="10"/>
<text x="128" y="206" text-anchor="middle" stroke="white" stroke-width="1px" font-size="smaller" dy=".3em">18</text>
<circle cx="166" cy="162" r="10"/>
<text x="166" y="162" text-anchor="middle" stroke="white" stroke-width="1px" font-size="smaller" dy=".3em">5</text>
<circle cx="83" cy="105" r="10"/>
<text x="83" y="105" text-anchor="middle" stroke="white" stroke-width="1px" font-size="smaller" dy=".3em">6</text>
<circle cx="166" cy="162" r="10"/>
<text x="166" y="162" text-anchor="middle" stroke="white" stroke-width="1px" font-size="smaller" dy=".3em">5</text>
<circle cx="129" cy="209" r="10"/>
<text x="129" y="209" text-anchor="middle" stroke="white" stroke-width="1px" font-size="smaller" dy=".3em">17</text>
<circle cx="242" cy="185" r="10"/>
<text x="242" y="185" text-anchor="middle" stroke="white" stroke-width="1px" font-size="smaller" dy=".3em">7</text>
<circle cx="239" cy="190" r="10"/>
<text x="239" y="190" text-anchor="middle" stroke="white" stroke-width="1px" font-size="smaller" dy=".3em">8</text>
<circle cx="242" cy="185" r="10"/>
<text x="242" y="185" text-anchor="middle" stroke="white" stroke-width="1px" font-size="smaller" dy=".3em">7</text>
<circle cx="210" cy="164" r="10"/>
<text x="210" y="164" text-anchor="middle" stroke="white" stroke-width="1px" font-size="smaller" dy=".3em">9</text>
<circle cx="239" cy="190" r="10"/>
<text x="239" y="190" text-anchor="middle" stroke="white" stroke-width="1px" font-size="smaller" dy=".3em">8</text>
<circle cx="106" cy="123" r="10"/>
<text x="106" y="123" text-anchor="middle" stroke="white" stroke-width="1px" font-size="smaller" dy=".3em">14</text>
<circle cx="239" cy="190" r="10"/>
<text x="239" y="190" text-anchor="middle" stroke="white" stroke-width="1px" font-size="smaller" dy=".3em">8</text>
<circle cx="234" cy="237" r="10"/>
<text x="234" y="237" text-anchor="middle" stroke="white" stroke-width="1px" font-size="smaller" dy=".3em">15</text>
<circle cx="210" cy="164" r="10"/>
<text x="210" y="164" text-anchor="middle" stroke="white" stroke-width="1px" font-size="smaller" dy=".3em">9</text>
<circle cx="167" cy="165" r="10"/>
<text x="167" y="165" text-anchor="middle" stroke="white" stroke-width="1px" font-size="smaller" dy=".3em">10</text>
<circle cx="210" cy="164" r="10"/>
<text x="210" y="164" text-anchor="middle" stroke="white" stroke-width="1px" font-size="smaller" dy=".3em">9</text>
<circle cx="106" cy="123" r="10"/>
<text x="106" y="123" text-anchor="middle" stroke="white" stroke-width="1px" font-size="smaller" dy=".3em">14</text>
<circle cx="167" cy="165" r="10"/>
<text x="167" y="165" text-anchor="middle" stroke="white" stroke-width="1px" font-size="smaller" dy=".3em">10</text>
<circle cx="241" cy="211" r="10"/>
<text x="241" y="211" text-anchor="middle" stroke="white" stroke-width="1px" font-size="smaller" dy=".3em">11</text>
<circle cx="241" cy="211" r="10"/>
<text x="241" y="211" text-anchor="middle" stroke="white" stroke-width="1px" font-size="smaller" dy=".3em">11</text>
<circle cx="241" cy="210" r="10"/>
<text x="241" y="210" text-anchor="middle" stroke="white" stroke-width="1px" font-size="smaller" dy=".3em">12</text>
<circle cx="241" cy="210" r="10"/>
<text x="241" y="210" text-anchor="middle" stroke="white" stroke-width="1px" font-size="smaller" dy=".3em">12</text>
<circle cx="177" cy="180" r="10"/>
<text x="177" y="180" text-anchor="middle" stroke="white" stroke-width="1px" font-size="smaller" dy=".3em">13</text>
<circle cx="177" cy="180" r="10"/>
<text x="177" y="180" text-anchor="middle" stroke="white" stroke-width="1px" font-size="smaller" dy=".3em">13</text>
<circle cx="128" cy="206" r="10"/>
<text x="128" y="206" text-anchor="middle" stroke="white" stroke-width="1px" font-size="smaller" dy=".3em">18</text>
<circle cx="234" cy="237" r="10"/>
<text x="234" y="237" text-anchor="middle" stroke="white" stroke-width="1px" font-size="smaller" dy=".3em">15</text>
<circle cx="225" cy="244" r="10"/>
<text x="225" y="244" text-anchor="middle" stroke="white" stroke-width="1px" font-size="smaller" dy=".3em">16</text>
<circle cx="225" cy="244" r="10"/>
<text x="225" y="244" text-anchor="middle" stroke="white" stroke-width="1px" font-size="smaller" dy=".3em">16</text>
<circle cx="129" cy="209" r="10"/>
<text x="129" y="209" text-anchor="middle" stroke="white" stroke-width="1px" font-size="smaller" dy=".3em">17</text>
<circle cx="129" cy="209" r="10"/>
<text x="129" y="209" text-anchor="middle" stroke="white" stroke-width="1px" font-size="smaller" dy=".3em">17</text>
<circle cx="128" cy="206" r="10"/>
<text x="128" y="206" text-anchor="middle" stroke="white" stroke-width="1px" font-size="smaller" dy=".3em">18</text>

</svg>